# xmcd
#
# Track frame offsets:
#	150
#	13350
#	24038
#	34848
#	46586
#	57125
#	67475
#	78425
#	91813
#	100213
#	108876
#	122489
#	131114
#	143527
#	154740
#	163440
#
# Disc length: 2364 seconds
#
# Revision: 1
# Processed by: cddbd v1.4PL0 Copyright (c) Steve Scherf et al.
# Submitted via: audiograbber 1.81.03
#
DISCID=ce093a10
DTITLE=Sockrow - No Time
DYEAR=2003
DGENRE=Rock 'n Roll
TTITLE0=Sea Cruise
TTITLE1=No Time
TTITLE2=Fools Fall In Love
TTITLE3=Everyday
TTITLE4=C'mon Everybody
TTITLE5=Brown Eyed Handsome Man
TTITLE6=Three Steps To Heaven
TTITLE7=Back In The U.S.A.
TTITLE8=I'm Walking
TTITLE9=Oh Boy
TTITLE10=You're Sixteen
TTITLE11=C'mon Let's Go
TTITLE12=Shama Lama Ding Dong
TTITLE13=Sweet Little Sixteen
TTITLE14=Teddy Bear
TTITLE15=Kansas City
EXTD=Peder Mac Hansen: Lead Vocals and Guitars\nPalle Bjørn: Piano, Organ and Backi
EXTD=ng Vocals\nRico Feldfoss: Drums and Backing Vocals\nHenrik Herge Dinesen: Ba
EXTD=ss and Backing Vocals\n\nGuest Musicians: \nTine Louise Korteman: Backing vo
EXTD=cals on track 2, 4, 8 and 13\nErik Mikkelsen: Sax on track 1, 2, 3, 6, 9, and 
EXTD=13\nKim O. Nielsen: Trumpet on track 6\n\nManagement\nBackbeat Music and Man
EXTD=agement +45 66116300
EXTT0=Huey Smith
EXTT1=Titans
EXTT2=Jerry Leiber and Mike Stoller
EXTT3=Charles Hardin and Norman Petty
EXTT4=Joe Byers
EXTT5=Chuck Berry
EXTT6=Eddie Cochran and Bobby Cochran
EXTT7=Chuck Berry
EXTT8=Antoine Domino and David Bartholomew
EXTT9=Sunny West, Bill Tilghman and Norman Petty
EXTT10=Robert B. Sherman and Richard M. Sherman
EXTT11=Ritchie Valens
EXTT12=Lloyd Williams
EXTT13=Chuck Berry
EXTT14=Kal Mann
EXTT15=Jerry Leiber and Mike Stoller
PLAYORDER=
